<?xml version="1.0" standalone="no"?>
<!DOCTYPE svg PUBLIC "-//W3C//DTD SVG 20010904//EN"
 "http://www.w3.org/TR/2001/REC-SVG-20010904/DTD/svg10.dtd">
<svg version="1.0" xmlns="http://www.w3.org/2000/svg"
 width="1023.000000pt" height="368.000000pt" viewBox="0 0 1023.000000 368.000000"
 preserveAspectRatio="xMidYMid meet">

<g transform="translate(0.000000,368.000000) scale(0.100000,-0.100000)"
fill="#ff0000" stroke="none">
<path d="M470 1840 l0 -1370 210 0 210 0 0 428 0 429 85 176 c47 98 89 177 93
177 4 0 89 -271 188 -602 l179 -603 224 -3 c210 -2 223 -1 216 15 -3 10 -121
400 -261 866 l-255 848 251 493 c137 271 250 499 250 505 0 8 -55 11 -206 9
l-207 -3 -268 -565 c-147 -310 -272 -566 -278 -568 -8 -3 -11 166 -11 567 l0
571 -210 0 -210 0 0 -1370z"/>
<path d="M2207 3204 c-4 -4 -7 -621 -7 -1371 l0 -1363 215 0 215 0 -2 1368 -3
1367 -206 3 c-113 1 -208 -1 -212 -4z"/>
<path d="M2957 3203 c-4 -3 -7 -91 -7 -195 l0 -188 225 0 225 0 0 -1175 0
-1175 215 0 215 0 0 1175 0 1175 223 2 222 3 0 190 0 190 -656 3 c-360 1 -659
-1 -662 -5z"/>
<path d="M4607 3203 c-4 -3 -7 -620 -7 -1370 l0 -1363 210 0 210 0 2 592 3
593 278 3 277 2 0 195 0 195 -277 2 -278 3 0 380 0 380 353 3 352 2 0 195 0
195 -558 0 c-307 0 -562 -3 -565 -7z"/>
<path d="M6067 3203 c-4 -3 -7 -620 -7 -1370 l0 -1363 565 0 565 0 0 190 0
190 -352 2 -353 3 -3 1178 -2 1177 -203 0 c-112 0 -207 -3 -210 -7z"/>
<path d="M7520 1840 l0 -1370 210 0 210 0 0 1370 0 1370 -210 0 -210 0 0
-1370z"/>
<path d="M8297 3203 c-2 -5 101 -307 230 -672 l235 -664 -246 -693 c-135 -381
-246 -695 -246 -698 0 -3 89 -6 198 -6 l197 0 160 475 c88 261 164 473 169
472 5 -2 79 -215 164 -475 l156 -472 223 0 222 0 -53 152 c-30 84 -140 395
-245 691 -105 296 -191 546 -191 555 0 9 103 310 230 669 126 358 230 656 230
662 0 8 -58 11 -197 9 l-196 -3 -43 -130 c-155 -464 -258 -755 -266 -747 -4 4
-71 200 -147 435 -77 235 -142 431 -146 437 -7 12 -431 14 -438 3z"/>
</g>
</svg>
